font.ufo
<glyph name="exclam" format="1">
  <advance width="194"/>
  <unicode hex="0021"/>
  <note>
    exclam
  </note>
  <outline>
    <contour>
      <point x="104" y="128" type="line"/>
      <point x="109" y="293" type="line"/>
      <point x="109" y="442" type="line"/>
      <point x="86" y="442" type="line"/>
      <point x="86" y="293" type="line"/>
      <point x="90" y="128" type="line"/>
    </contour>
    <contour>
      <point x="110" y="0" type="line"/>
      <point x="110" y="54" type="line"/>
      <point x="84" y="54" type="line"/>
      <point x="84" y="0" type="line"/>
    </contour>
  </outline>
</glyph>
<glyph name="parenleft" format="1">
  <advance width="256"/>
  <unicode hex="0028"/>
  <note>
    parenleft
  </note>
  <outline>
    <contour>
      <point x="175" y="-68" type="curve"/>
      <point x="175" y="-46" type="line"/>
      <point x="108" y="-46" type="line"/>
      <point x="108" y="488" type="line"/>
      <point x="175" y="488" type="line"/>
      <point x="175" y="510" type="line"/>
      <point x="162" y="512"/>
      <point x="148" y="513"/>
      <point x="133" y="513" type="curve"/>
      <point x="107" y="503"/>
      <point x="88" y="489"/>
      <point x="83" y="467" type="curve"/>
      <point x="83" y="-25" type="line"/>
      <point x="88" y="-46"/>
      <point x="107" y="-61"/>
      <point x="133" y="-70" type="curve"/>
      <point x="148" y="-70"/>
      <point x="162" y="-70"/>
    </contour>
  </outline>
</glyph>
<glyph name="semicolon" format="1">
  <advance width="193"/>
  <unicode hex="003B"/>
  <note>
    semicolon
  </note>
  <outline>
    <contour>
      <point x="128" y="57" type="curve" smooth="yes"/>
      <point x="128" y="85"/>
      <point x="115" y="99"/>
      <point x="89" y="99" type="curve" smooth="yes"/>
      <point x="80" y="99"/>
      <point x="72" y="98"/>
      <point x="65" y="96" type="curve"/>
      <point x="65" y="78" type="line"/>
      <point x="106" y="78" type="line"/>
      <point x="106" y="29"/>
      <point x="96" y="0"/>
      <point x="79" y="-30" type="curve"/>
      <point x="95" y="-34" type="line"/>
      <point x="117" y="-7"/>
      <point x="128" y="23"/>
    </contour>
    <contour>
      <point x="115" y="259" type="line"/>
      <point x="115" y="298" type="line"/>
      <point x="75" y="298" type="line"/>
      <point x="75" y="259" type="line"/>
    </contour>
  </outline>
</glyph>
<glyph name="braceleft" format="1">
  <advance width="288"/>
  <unicode hex="007B"/>
  <note>
    braceleft
  </note>
  <outline>
    <contour>
      <point x="241" y="-65" type="line"/>
      <point x="212" y="-63"/>
      <point x="194" y="-57"/>
      <point x="170" y="-48" type="curve"/>
      <point x="162" y="-12"/>
      <point x="159" y="15"/>
      <point x="160" y="51" type="curve" smooth="yes"/>
      <point x="163" y="124" type="line" smooth="yes"/>
      <point x="165" y="178"/>
      <point x="146" y="214"/>
      <point x="99" y="227" type="curve"/>
      <point x="99" y="232" type="line"/>
      <point x="146" y="245"/>
      <point x="165" y="281"/>
      <point x="163" y="335" type="curve" smooth="yes"/>
      <point x="160" y="397" type="line" smooth="yes"/>
      <point x="159" y="433"/>
      <point x="162" y="459"/>
      <point x="170" y="495" type="curve"/>
      <point x="194" y="504"/>
      <point x="212" y="510"/>
      <point x="241" y="513" type="curve"/>
      <point x="241" y="535" type="line"/>
      <point x="162" y="528"/>
      <point x="131" y="489"/>
      <point x="137" y="399" type="curve" smooth="yes"/>
      <point x="141" y="347" type="line" smooth="yes"/>
      <point x="144" y="289"/>
      <point x="126" y="240"/>
      <point x="54" y="240" type="curve"/>
      <point x="54" y="219" type="line"/>
      <point x="126" y="219"/>
      <point x="144" y="170"/>
      <point x="141" y="112" type="curve" smooth="yes"/>
      <point x="137" y="48" type="line" smooth="yes"/>
      <point x="131" y="-41"/>
      <point x="162" y="-80"/>
      <point x="241" y="-88" type="curve"/>
    </contour>
  </outline>
</glyph>
<glyph name="braceright" format="1">
  <advance width="288"/>
  <unicode hex="007D"/>
  <note>
    braceright
  </note>
  <outline>
    <contour>
      <point x="151" y="48" type="curve" smooth="yes"/>
      <point x="147" y="112" type="line" smooth="yes"/>
      <point x="144" y="170"/>
      <point x="162" y="219"/>
      <point x="233" y="219" type="curve"/>
      <point x="233" y="240" type="line"/>
      <point x="162" y="240"/>
      <point x="144" y="289"/>
      <point x="147" y="347" type="curve" smooth="yes"/>
      <point x="151" y="399" type="line" smooth="yes"/>
      <point x="157" y="489"/>
      <point x="125" y="528"/>
      <point x="47" y="535" type="curve"/>
      <point x="47" y="513" type="line"/>
      <point x="76" y="510"/>
      <point x="94" y="504"/>
      <point x="117" y="495" type="curve"/>
      <point x="125" y="459"/>
      <point x="129" y="433"/>
      <point x="128" y="397" type="curve" smooth="yes"/>
      <point x="125" y="335" type="line" smooth="yes"/>
      <point x="123" y="281"/>
      <point x="142" y="245"/>
      <point x="189" y="232" type="curve"/>
      <point x="189" y="227" type="line"/>
      <point x="142" y="214"/>
      <point x="123" y="178"/>
      <point x="125" y="124" type="curve" smooth="yes"/>
      <point x="128" y="51" type="line" smooth="yes"/>
      <point x="129" y="15"/>
      <point x="125" y="-12"/>
      <point x="117" y="-48" type="curve"/>
      <point x="94" y="-57"/>
      <point x="76" y="-63"/>
      <point x="47" y="-65" type="curve"/>
      <point x="47" y="-88" type="line"/>
      <point x="125" y="-80"/>
      <point x="157" y="-41"/>
    </contour>
  </outline>
</glyph>
<glyph name="periodcentered" format="1">
  <advance width="244"/>
  <unicode hex="00B7"/>
  <note>
    periodcentered
  </note>
  <outline>
    <contour>
      <point x="149" y="195" type="curve" smooth="yes"/>
      <point x="149" y="212"/>
      <point x="139" y="221"/>
      <point x="123" y="221" type="curve" smooth="yes"/>
      <point x="106" y="221"/>
      <point x="96" y="212"/>
      <point x="96" y="195" type="curve" smooth="yes"/>
      <point x="96" y="179"/>
      <point x="106" y="170"/>
      <point x="123" y="170" type="curve" smooth="yes"/>
      <point x="139" y="170"/>
      <point x="149" y="179"/>
    </contour>
  </outline>
</glyph>
<glyph name="guillemotright" format="1">
  <advance width="326"/>
  <unicode hex="00BB"/>
  <note>
    guillemotright
  </note>
  <outline>
    <contour>
      <point x="275" y="182" type="line"/>
      <point x="181" y="305" type="line"/>
      <point x="166" y="299" type="line"/>
      <point x="252" y="183" type="line"/>
      <point x="252" y="181" type="line"/>
      <point x="166" y="65" type="line"/>
      <point x="181" y="59" type="line"/>
    </contour>
    <contour>
      <point x="159" y="182" type="line"/>
      <point x="65" y="305" type="line"/>
      <point x="50" y="299" type="line"/>
      <point x="136" y="183" type="line"/>
      <point x="136" y="181" type="line"/>
      <point x="50" y="65" type="line"/>
      <point x="65" y="59" type="line"/>
    </contour>
  </outline>
</glyph>
<glyph name="grBindi" format="1">
  <unicode hex="0A02"/>
  <outline>
    <contour>
      <point x="-46" y="514" type="curve" smooth="yes"/>
      <point x="-46" y="526"/>
      <point x="-57" y="535"/>
      <point x="-67" y="535" type="curve" smooth="yes"/>
      <point x="-78" y="535"/>
      <point x="-88" y="526"/>
      <point x="-88" y="514" type="curve" smooth="yes"/>
      <point x="-88" y="502"/>
      <point x="-79" y="493"/>
      <point x="-67" y="493" type="curve" smooth="yes"/>
      <point x="-57" y="493"/>
      <point x="-46" y="502"/>
    </contour>
    <contour>
      <point x="-67" y="439" type="move" name="_top"/>
    </contour>
  </outline>
</glyph>
<glyph name="grVisarga" format="1">
  <advance width="303"/>
  <unicode hex="0A03"/>
  <outline>
    <contour>
      <point x="220" y="343" type="curve" smooth="yes"/>
      <point x="220" y="385"/>
      <point x="194" y="424"/>
      <point x="148" y="424" type="curve" smooth="yes"/>
      <point x="109" y="424"/>
      <point x="83" y="397"/>
      <point x="83" y="345" type="curve" smooth="yes"/>
      <point x="83" y="303"/>
      <point x="110" y="264"/>
      <point x="156" y="264" type="curve" smooth="yes"/>
      <point x="198" y="264"/>
      <point x="220" y="294"/>
    </contour>
    <contour>
      <point x="220" y="133" type="curve" smooth="yes"/>
      <point x="220" y="175"/>
      <point x="194" y="214"/>
      <point x="148" y="214" type="curve" smooth="yes"/>
      <point x="109" y="214"/>
      <point x="83" y="186"/>
      <point x="83" y="135" type="curve" smooth="yes"/>
      <point x="83" y="93"/>
      <point x="110" y="54"/>
      <point x="156" y="54" type="curve" smooth="yes"/>
      <point x="198" y="54"/>
      <point x="220" y="83"/>
    </contour>
    <contour>
      <point x="117" y="79" type="curve"/>
      <point x="109" y="91"/>
      <point x="103" y="113"/>
      <point x="103" y="135" type="curve" smooth="yes"/>
      <point x="103" y="175"/>
      <point x="119" y="196"/>
      <point x="150" y="196" type="curve" smooth="yes"/>
      <point x="165" y="196"/>
      <point x="177" y="194"/>
      <point x="186" y="189" type="curve"/>
      <point x="194" y="177"/>
      <point x="200" y="154"/>
      <point x="200" y="133" type="curve" smooth="yes"/>
      <point x="200" y="92"/>
      <point x="184" y="72"/>
      <point x="153" y="72" type="curve" smooth="yes"/>
      <point x="139" y="72"/>
      <point x="126" y="74"/>
    </contour>
    <contour>
      <point x="117" y="289" type="curve"/>
      <point x="109" y="301"/>
      <point x="103" y="323"/>
      <point x="103" y="345" type="curve" smooth="yes"/>
      <point x="103" y="386"/>
      <point x="119" y="407"/>
      <point x="150" y="407" type="curve" smooth="yes"/>
      <point x="165" y="407"/>
      <point x="177" y="404"/>
      <point x="186" y="399" type="curve"/>
      <point x="194" y="387"/>
      <point x="200" y="365"/>
      <point x="200" y="343" type="curve" smooth="yes"/>
      <point x="200" y="302"/>
      <point x="184" y="282"/>
      <point x="153" y="282" type="curve" smooth="yes"/>
      <point x="139" y="282"/>
      <point x="126" y="284"/>
    </contour>
  </outline>
</glyph>
<glyph name="grGHA" format="1">
  <advance width="484"/>
  <unicode hex="0A18"/>
  <outline>
    <contour>
      <point x="426" y="0" type="line"/>
      <point x="426" y="421" type="line"/>
      <point x="513" y="421" type="line"/>
      <point x="513" y="439" type="line"/>
      <point x="405" y="439" type="line"/>
      <point x="405" y="162" type="line"/>
      <point x="368" y="134"/>
      <point x="351" y="122"/>
      <point x="318" y="122" type="curve" smooth="yes"/>
      <point x="287" y="122"/>
      <point x="266" y="137"/>
      <point x="251" y="203" type="curve"/>
      <point x="245" y="186" type="line"/>
      <point x="257" y="124"/>
      <point x="286" y="101"/>
      <point x="325" y="101" type="curve" smooth="yes"/>
      <point x="350" y="101"/>
      <point x="377" y="115"/>
      <point x="403" y="136" type="curve"/>
      <point x="406" y="136" type="line"/>
      <point x="405" y="75" type="line"/>
      <point x="405" y="0" type="line"/>
    </contour>
    <contour>
      <point x="267" y="311" type="curve" smooth="yes"/>
      <point x="267" y="346"/>
      <point x="265" y="383"/>
      <point x="262" y="418" type="curve"/>
      <point x="257" y="421"/>
      <point x="252" y="421"/>
      <point x="247" y="418" type="curve"/>
      <point x="244" y="383"/>
      <point x="242" y="346"/>
      <point x="242" y="311" type="curve" smooth="yes"/>
      <point x="242" y="285"/>
      <point x="242" y="237"/>
      <point x="244" y="202" type="curve"/>
      <point x="223" y="147"/>
      <point x="192" y="122"/>
      <point x="139" y="122" type="curve" smooth="yes"/>
      <point x="105" y="122"/>
      <point x="68" y="141"/>
      <point x="58" y="171" type="curve"/>
      <point x="102" y="235"/>
      <point x="115" y="272"/>
      <point x="115" y="323" type="curve" smooth="yes"/>
      <point x="115" y="381"/>
      <point x="88" y="439"/>
      <point x="20" y="439" type="curve" smooth="yes"/>
      <point x="-29" y="439" type="line"/>
      <point x="-29" y="421" type="line" smooth="yes"/>
      <point x="20" y="421" type="line" smooth="yes"/>
      <point x="42" y="421"/>
      <point x="59" y="418"/>
      <point x="75" y="409" type="curve"/>
      <point x="88" y="383"/>
      <point x="94" y="355"/>
      <point x="94" y="323" type="curve" smooth="yes"/>
      <point x="94" y="279"/>
      <point x="80" y="238"/>
      <point x="44" y="191" type="curve" smooth="yes"/>
      <point x="38" y="184"/>
      <point x="36" y="179"/>
      <point x="36" y="174" type="curve" smooth="yes"/>
      <point x="36" y="141"/>
      <point x="85" y="101"/>
      <point x="139" y="101" type="curve" smooth="yes"/>
      <point x="202" y="101"/>
      <point x="267" y="146"/>
    </contour>
  </outline>
</glyph>
<glyph name="grNYA" format="1">
  <advance width="399"/>
  <unicode hex="0A1E"/>
  <outline>
    <contour>
      <point x="374" y="14" type="curve"/>
      <point x="365" y="37" type="line"/>
      <point x="331" y="25"/>
      <point x="307" y="20"/>
      <point x="280" y="20" type="curve" smooth="yes"/>
      <point x="223" y="20"/>
      <point x="200" y="44"/>
      <point x="200" y="83" type="curve" smooth="yes"/>
      <point x="200" y="92"/>
      <point x="202" y="103"/>
      <point x="204" y="115" type="curve"/>
      <point x="247" y="115"/>
      <point x="301" y="126"/>
      <point x="339" y="142" type="curve"/>
      <point x="339" y="159"/>
      <point x="331" y="167"/>
      <point x="320" y="170" type="curve"/>
      <point x="200" y="125" type="line"/>
      <point x="124" y="131"/>
      <point x="83" y="164"/>
      <point x="83" y="213" type="curve" smooth="yes"/>
      <point x="83" y="253"/>
      <point x="109" y="268"/>
      <point x="154" y="268" type="curve" smooth="yes"/>
      <point x="320" y="268" type="line"/>
      <point x="320" y="421" type="line"/>
      <point x="428" y="421" type="line"/>
      <point x="428" y="439" type="line"/>
      <point x="-29" y="439" type="line"/>
      <point x="-29" y="421" type="line"/>
      <point x="53" y="421" type="line"/>
      <point x="60" y="357"/>
      <point x="90" y="310"/>
      <point x="149" y="289" type="curve"/>
      <point x="149" y="286" type="line"/>
      <point x="96" y="286"/>
      <point x="62" y="260"/>
      <point x="62" y="215" type="curve" smooth="yes"/>
      <point x="62" y="159"/>
      <point x="112" y="120"/>
      <point x="195" y="115" type="curve"/>
      <point x="189" y="97"/>
      <point x="186" y="82"/>
      <point x="186" y="68" type="curve" smooth="yes"/>
      <point x="186" y="21"/>
      <point x="221" y="-4"/>
      <point x="287" y="-4" type="curve" smooth="yes"/>
      <point x="318" y="-4"/>
      <point x="344" y="2"/>
    </contour>
    <contour>
      <point x="78" y="421" type="curve"/>
      <point x="299" y="421" type="line"/>
      <point x="299" y="286" type="line"/>
      <point x="207" y="286" type="line" smooth="yes"/>
      <point x="146" y="286"/>
      <point x="85" y="333"/>
    </contour>
    <contour>
      <point x="310" y="439" type="move" name="top"/>
    </contour>
    <contour>
      <point x="206" y="0" type="move" name="bottom"/>
    </contour>
  </outline>
</glyph>
<glyph name="grPA" format="1">
  <advance width="381"/>
  <unicode hex="0A2A"/>
  <outline>
    <contour>
      <point x="323" y="0" type="line"/>
      <point x="323" y="421" type="line"/>
      <point x="410" y="421" type="line"/>
      <point x="410" y="439" type="line"/>
      <point x="302" y="439" type="line"/>
      <point x="302" y="162" type="line"/>
      <point x="247" y="130"/>
      <point x="209" y="122"/>
      <point x="167" y="122" type="curve" smooth="yes"/>
      <point x="129" y="122"/>
      <point x="83" y="131"/>
      <point x="58" y="167" type="curve"/>
      <point x="96" y="225"/>
      <point x="115" y="265"/>
      <point x="115" y="323" type="curve" smooth="yes"/>
      <point x="115" y="381"/>
      <point x="88" y="439"/>
      <point x="20" y="439" type="curve" smooth="yes"/>
      <point x="-29" y="439" type="line"/>
      <point x="-29" y="421" type="line" smooth="yes"/>
      <point x="20" y="421" type="line" smooth="yes"/>
      <point x="42" y="421"/>
      <point x="59" y="418"/>
      <point x="75" y="409" type="curve"/>
      <point x="88" y="383"/>
      <point x="94" y="355"/>
      <point x="94" y="323" type="curve" smooth="yes"/>
      <point x="94" y="277"/>
      <point x="76" y="234"/>
      <point x="45" y="187" type="curve" smooth="yes"/>
      <point x="39" y="178"/>
      <point x="38" y="175"/>
      <point x="38" y="170" type="curve" smooth="yes"/>
      <point x="38" y="142"/>
      <point x="99" y="101"/>
      <point x="167" y="101" type="curve" smooth="yes"/>
      <point x="212" y="101"/>
      <point x="253" y="110"/>
      <point x="302" y="137" type="curve"/>
      <point x="304" y="136" type="line"/>
      <point x="302" y="75" type="line"/>
      <point x="302" y="0" type="line"/>
    </contour>
  </outline>
</glyph>
<glyph name="grMA" format="1">
  <advance width="399"/>
  <unicode hex="0A2E"/>
  <outline>
    <contour>
      <point x="110" y="251" type="curve" smooth="yes"/>
      <point x="110" y="334"/>
      <point x="85" y="439"/>
      <point x="24" y="439" type="curve" smooth="yes"/>
      <point x="-29" y="439" type="line"/>
      <point x="-29" y="421" type="line"/>
      <point x="49" y="421" type="line"/>
      <point x="80" y="387"/>
      <point x="91" y="296"/>
      <point x="91" y="194" type="curve"/>
      <point x="59" y="121"/>
      <point x="55" y="103"/>
      <point x="55" y="89" type="curve" smooth="yes"/>
      <point x="55" y="80"/>
      <point x="63" y="75"/>
      <point x="73" y="75" type="curve"/>
      <point x="94" y="120"/>
      <point x="110" y="194"/>
    </contour>
    <contour>
      <point x="329" y="201" type="curve"/>
      <point x="329" y="223" type="line"/>
      <point x="228" y="244"/>
      <point x="159" y="237"/>
      <point x="96" y="201" type="curve"/>
      <point x="96" y="189" type="line"/>
      <point x="163" y="228"/>
      <point x="246" y="223"/>
    </contour>
    <contour>
      <point x="341" y="0" type="line"/>
      <point x="341" y="421" type="line"/>
      <point x="428" y="421" type="line"/>
      <point x="428" y="439" type="line"/>
      <point x="320" y="439" type="line"/>
      <point x="320" y="0" type="line"/>
    </contour>
  </outline>
</glyph>
<glyph name="grVA" format="1">
  <advance width="385"/>
  <unicode hex="0A35"/>
  <outline>
    <contour>
      <point x="355" y="16" type="curve"/>
      <point x="346" y="37" type="line"/>
      <point x="311" y="25"/>
      <point x="287" y="20"/>
      <point x="262" y="20" type="curve" smooth="yes"/>
      <point x="201" y="20"/>
      <point x="177" y="46"/>
      <point x="177" y="95" type="curve" smooth="yes"/>
      <point x="177" y="107"/>
      <point x="178" y="119"/>
      <point x="181" y="133" type="curve"/>
      <point x="230" y="134"/>
      <point x="278" y="144"/>
      <point x="316" y="160" type="curve"/>
      <point x="316" y="177"/>
      <point x="308" y="186"/>
      <point x="297" y="188" type="curve"/>
      <point x="179" y="143" type="line"/>
      <point x="102" y="148"/>
      <point x="60" y="181"/>
      <point x="60" y="224" type="curve" smooth="yes"/>
      <point x="60" y="264"/>
      <point x="86" y="288"/>
      <point x="129" y="288" type="curve" smooth="yes"/>
      <point x="297" y="288" type="line"/>
      <point x="297" y="421" type="line"/>
      <point x="414" y="421" type="line"/>
      <point x="414" y="439" type="line"/>
      <point x="-29" y="439" type="line"/>
      <point x="-29" y="421" type="line"/>
      <point x="276" y="421" type="line"/>
      <point x="276" y="306" type="line"/>
      <point x="129" y="306" type="line" smooth="yes"/>
      <point x="73" y="306"/>
      <point x="38" y="275"/>
      <point x="38" y="226" type="curve" smooth="yes"/>
      <point x="38" y="173"/>
      <point x="88" y="138"/>
      <point x="171" y="133" type="curve"/>
      <point x="165" y="112"/>
      <point x="162" y="95"/>
      <point x="162" y="79" type="curve" smooth="yes"/>
      <point x="162" y="25"/>
      <point x="204" y="-4"/>
      <point x="264" y="-4" type="curve" smooth="yes"/>
      <point x="295" y="-4"/>
      <point x="331" y="4"/>
    </contour>
    <contour>
      <point x="286" y="439" type="move" name="top"/>
    </contour>
    <contour>
      <point x="206" y="0" type="move" name="bottom"/>
    </contour>
  </outline>
</glyph>
<glyph name="grSxA" format="1">
  <advance width="399"/>
  <unicode hex="0A36"/>
  <outline>
    <contour>
      <point x="110" y="251" type="curve" smooth="yes"/>
      <point x="110" y="334"/>
      <point x="85" y="439"/>
      <point x="24" y="439" type="curve" smooth="yes"/>
      <point x="-29" y="439" type="line"/>
      <point x="-29" y="421" type="line"/>
      <point x="49" y="421" type="line"/>
      <point x="80" y="387"/>
      <point x="91" y="296"/>
      <point x="91" y="194" type="curve"/>
      <point x="59" y="121"/>
      <point x="55" y="103"/>
      <point x="55" y="89" type="curve" smooth="yes"/>
      <point x="55" y="80"/>
      <point x="63" y="75"/>
      <point x="73" y="75" type="curve"/>
      <point x="94" y="120"/>
      <point x="110" y="194"/>
    </contour>
    <contour>
      <point x="217" y="13" type="curve" smooth="yes"/>
      <point x="217" y="25"/>
      <point x="207" y="34"/>
      <point x="196" y="34" type="curve" smooth="yes"/>
      <point x="185" y="34"/>
      <point x="175" y="25"/>
      <point x="175" y="13" type="curve" smooth="yes"/>
      <point x="175" y="1"/>
      <point x="184" y="-8"/>
      <point x="196" y="-8" type="curve" smooth="yes"/>
      <point x="207" y="-8"/>
      <point x="217" y="1"/>
    </contour>
    <contour>
      <point x="329" y="223" type="line"/>
      <point x="291" y="231"/>
      <point x="257" y="235"/>
      <point x="228" y="235" type="curve" smooth="yes"/>
      <point x="177" y="235"/>
      <point x="136" y="223"/>
      <point x="96" y="201" type="curve"/>
      <point x="96" y="189" type="line"/>
      <point x="131" y="210"/>
      <point x="171" y="218"/>
      <point x="213" y="218" type="curve" smooth="yes"/>
      <point x="250" y="218"/>
      <point x="290" y="211"/>
      <point x="329" y="201" type="curve"/>
    </contour>
    <contour>
      <point x="341" y="0" type="line"/>
      <point x="341" y="421" type="line"/>
      <point x="428" y="421" type="line"/>
      <point x="428" y="439" type="line"/>
      <point x="320" y="439" type="line"/>
      <point x="320" y="0" type="line"/>
    </contour>
  </outline>
</glyph>
<glyph name="grSA" format="1">
  <advance width="400"/>
  <unicode hex="0A38"/>
  <outline>
    <contour>
      <point x="111" y="258" type="curve" smooth="yes"/>
      <point x="108" y="321"/>
      <point x="97" y="376"/>
      <point x="59" y="431" type="curve"/>
      <point x="49" y="425" type="line"/>
      <point x="81" y="373"/>
      <point x="93" y="291"/>
      <point x="91" y="194" type="curve"/>
      <point x="60" y="121"/>
      <point x="56" y="103"/>
      <point x="56" y="89" type="curve" smooth="yes"/>
      <point x="56" y="80"/>
      <point x="64" y="75"/>
      <point x="73" y="75" type="curve"/>
      <point x="94" y="120"/>
      <point x="114" y="201"/>
    </contour>
    <contour>
      <point x="213" y="218" type="curve" smooth="yes"/>
      <point x="250" y="218"/>
      <point x="290" y="211"/>
      <point x="329" y="201" type="curve"/>
      <point x="329" y="223" type="line"/>
      <point x="291" y="231"/>
      <point x="257" y="235"/>
      <point x="228" y="235" type="curve" smooth="yes"/>
      <point x="177" y="235"/>
      <point x="136" y="223"/>
      <point x="96" y="201" type="curve"/>
      <point x="96" y="189" type="line"/>
      <point x="131" y="210"/>
      <point x="171" y="218"/>
    </contour>
    <contour>
      <point x="342" y="0" type="line"/>
      <point x="342" y="431" type="line"/>
      <point x="320" y="431" type="line"/>
      <point x="320" y="0" type="line"/>
    </contour>
    <contour>
      <point x="429" y="421" type="line"/>
      <point x="429" y="439" type="line"/>
      <point x="-29" y="439" type="line"/>
      <point x="-29" y="421" type="line"/>
    </contour>
  </outline>
</glyph>
<glyph name="grmAA" format="1">
  <advance width="138"/>
  <unicode hex="0A3E"/>
  <outline>
    <contour>
      <point x="80" y="215" type="line"/>
      <point x="80" y="421" type="line"/>
      <point x="167" y="421" type="line"/>
      <point x="167" y="439" type="line"/>
      <point x="-29" y="439" type="line"/>
      <point x="-29" y="421" type="line"/>
      <point x="58" y="421" type="line"/>
      <point x="58" y="215" type="line"/>
    </contour>
    <contour>
      <point x="69" y="439" type="move" name="top"/>
    </contour>
  </outline>
</glyph>
<glyph name="grmI" format="1">
  <advance width="138"/>
  <unicode hex="0A3F"/>
  <outline>
    <contour>
      <point x="80" y="0" type="line"/>
      <point x="80" y="421" type="line"/>
      <point x="167" y="421" type="line"/>
      <point x="167" y="439" type="line"/>
      <point x="-29" y="439" type="line"/>
      <point x="-29" y="421" type="line"/>
      <point x="58" y="421" type="line"/>
      <point x="58" y="0" type="line"/>
    </contour>
    <contour>
      <point x="78" y="434" type="line"/>
      <point x="53" y="460"/>
      <point x="40" y="486"/>
      <point x="40" y="523" type="curve" smooth="yes"/>
      <point x="40" y="569"/>
      <point x="68" y="600"/>
      <point x="115" y="600" type="curve" smooth="yes"/>
      <point x="162" y="600"/>
      <point x="200" y="579"/>
      <point x="292" y="494" type="curve"/>
      <point x="302" y="502" type="line"/>
      <point x="212" y="587"/>
      <point x="167" y="620"/>
      <point x="112" y="620" type="curve" smooth="yes"/>
      <point x="58" y="620"/>
      <point x="17" y="586"/>
      <point x="17" y="527" type="curve" smooth="yes"/>
      <point x="17" y="492"/>
      <point x="37" y="455"/>
      <point x="62" y="434" type="curve"/>
    </contour>
    <contour>
      <point x="410" y="439" type="move" name="top"/>
    </contour>
  </outline>
</glyph>
<glyph name="grmU" format="1">
  <unicode hex="0A41"/>
  <outline>
    <contour>
      <point x="-45" y="-75" type="curve"/>
      <point x="-55" y="-56" type="line"/>
      <point x="-92" y="-77"/>
      <point x="-138" y="-91"/>
      <point x="-186" y="-91" type="curve" smooth="yes"/>
      <point x="-222" y="-91"/>
      <point x="-265" y="-84"/>
      <point x="-310" y="-68" type="curve"/>
      <point x="-315" y="-80" type="line"/>
      <point x="-270" y="-100"/>
      <point x="-226" y="-111"/>
      <point x="-181" y="-111" type="curve" smooth="yes"/>
      <point x="-131" y="-111"/>
      <point x="-76" y="-95"/>
    </contour>
    <contour>
      <point x="-181" y="0" type="move" name="_bottom"/>
    </contour>
  </outline>
</glyph>
<glyph name="grmAI" format="1">
  <unicode hex="0A48"/>
  <outline>
    <contour>
      <point x="-59" y="436" type="line"/>
      <point x="-141" y="634" type="line" smooth="yes"/>
      <point x="-152" y="661"/>
      <point x="-171" y="673"/>
      <point x="-199" y="673" type="curve" smooth="yes"/>
      <point x="-218" y="673"/>
      <point x="-241" y="668"/>
      <point x="-270" y="658" type="curve"/>
      <point x="-269" y="649" type="line"/>
      <point x="-172" y="649" type="line"/>
      <point x="-79" y="455" type="line"/>
      <point x="-80" y="455" type="line"/>
      <point x="-146" y="540" type="line" smooth="yes"/>
      <point x="-163" y="562"/>
      <point x="-179" y="568"/>
      <point x="-198" y="568" type="curve" smooth="yes"/>
      <point x="-220" y="568"/>
      <point x="-245" y="561"/>
      <point x="-281" y="545" type="curve"/>
      <point x="-279" y="536" type="line"/>
      <point x="-181" y="547" type="line"/>
      <point x="-80" y="436" type="line"/>
    </contour>
    <contour>
      <point x="-70" y="439" type="move" name="_top"/>
    </contour>
  </outline>
</glyph>
<glyph name="grmAU" format="1">
  <unicode hex="0A4C"/>
  <outline>
    <contour>
      <point x="-99" y="587" type="line"/>
      <point x="-70" y="605" type="line"/>
      <point x="-152" y="605" type="line" smooth="yes"/>
      <point x="-195" y="605"/>
      <point x="-206" y="621"/>
      <point x="-209" y="658" type="curve"/>
      <point x="-214" y="658" type="line"/>
      <point x="-218" y="649"/>
      <point x="-219" y="640"/>
      <point x="-219" y="632" type="curve" smooth="yes"/>
      <point x="-219" y="604"/>
      <point x="-196" y="587"/>
      <point x="-152" y="587" type="curve" smooth="yes"/>
    </contour>
    <component base="grTippi" xOffset="-4"/>
    <contour>
      <point x="-67" y="439" type="move" name="_top"/>
    </contour>
  </outline>
</glyph>
<glyph name="grVirama" format="1">
  <unicode hex="0A4D"/>
  <outline>
    <contour>
      <point x="17" y="-228" type="line"/>
      <point x="-57" y="-107" type="line" smooth="yes"/>
      <point x="-72" y="-82"/>
      <point x="-87" y="-72"/>
      <point x="-107" y="-72" type="curve" smooth="yes"/>
      <point x="-129" y="-72"/>
      <point x="-156" y="-85"/>
      <point x="-193" y="-103" type="curve"/>
      <point x="-190" y="-112" type="line"/>
      <point x="-90" y="-93" type="line"/>
      <point x="6" y="-233" type="line"/>
    </contour>
    <contour>
      <point x="-69" y="0" type="move" name="_bottom"/>
    </contour>
  </outline>
</glyph>
<glyph name="grGxA" format="1">
  <advance width="505"/>
  <unicode hex="0A5A"/>
  <outline>
    <contour>
      <point x="297" y="96" type="curve" smooth="yes"/>
      <point x="297" y="421" type="line"/>
      <point x="425" y="421" type="line"/>
      <point x="425" y="0" type="line"/>
      <point x="447" y="0" type="line"/>
      <point x="447" y="421" type="line"/>
      <point x="534" y="421" type="line"/>
      <point x="534" y="439" type="line"/>
      <point x="-29" y="439" type="line"/>
      <point x="-29" y="421" type="line"/>
      <point x="275" y="421" type="line"/>
      <point x="275" y="264" type="line"/>
      <point x="166" y="264" type="line" smooth="yes"/>
      <point x="96" y="264"/>
      <point x="61" y="239"/>
      <point x="61" y="177" type="curve" smooth="yes"/>
      <point x="61" y="81"/>
      <point x="143" y="-4"/>
      <point x="222" y="-4" type="curve" smooth="yes"/>
      <point x="266" y="-4"/>
      <point x="297" y="28"/>
    </contour>
    <contour>
      <point x="58" y="13" type="curve" smooth="yes"/>
      <point x="58" y="25"/>
      <point x="48" y="34"/>
      <point x="37" y="34" type="curve" smooth="yes"/>
      <point x="26" y="34"/>
      <point x="16" y="25"/>
      <point x="16" y="13" type="curve" smooth="yes"/>
      <point x="16" y="1"/>
      <point x="25" y="-8"/>
      <point x="37" y="-8" type="curve" smooth="yes"/>
      <point x="48" y="-8"/>
      <point x="58" y="1"/>
    </contour>
    <contour>
      <point x="84" y="119" type="curve"/>
      <point x="83" y="137"/>
      <point x="83" y="152"/>
      <point x="83" y="165" type="curve" smooth="yes"/>
      <point x="83" y="213"/>
      <point x="94" y="246"/>
      <point x="181" y="246" type="curve" smooth="yes"/>
      <point x="275" y="246" type="line"/>
      <point x="275" y="94" type="line" smooth="yes"/>
      <point x="275" y="43"/>
      <point x="254" y="15"/>
      <point x="220" y="15" type="curve" smooth="yes"/>
      <point x="157" y="15"/>
      <point x="110" y="73"/>
    </contour>
  </outline>
</glyph>
<glyph name="grRRA" format="1">
  <advance width="418"/>
  <unicode hex="0A5C"/>
  <outline>
    <contour>
      <point x="180" y="7" type="curve"/>
      <point x="128" y="43"/>
      <point x="87" y="83"/>
      <point x="52" y="136" type="curve"/>
      <point x="49" y="130" type="line"/>
      <point x="96" y="100"/>
      <point x="154" y="78"/>
      <point x="204" y="78" type="curve" smooth="yes"/>
      <point x="312" y="78"/>
      <point x="374" y="128"/>
      <point x="374" y="193" type="curve" smooth="yes"/>
      <point x="374" y="258"/>
      <point x="312" y="308"/>
      <point x="172" y="308" type="curve" smooth="yes"/>
      <point x="88" y="308"/>
      <point x="80" y="297"/>
      <point x="80" y="290" type="curve" smooth="yes"/>
      <point x="80" y="288"/>
      <point x="80" y="286"/>
      <point x="81" y="283" type="curve"/>
      <point x="102" y="278"/>
      <point x="143" y="275"/>
      <point x="182" y="275" type="curve" smooth="yes"/>
      <point x="218" y="275"/>
      <point x="240" y="278"/>
      <point x="277" y="283" type="curve"/>
      <point x="326" y="267"/>
      <point x="350" y="236"/>
      <point x="350" y="193" type="curve" smooth="yes"/>
      <point x="350" y="149"/>
      <point x="316" y="92"/>
      <point x="180" y="92" type="curve"/>
      <point x="133" y="104"/>
      <point x="84" y="123"/>
      <point x="38" y="149" type="curve"/>
      <point x="32" y="140" type="line"/>
      <point x="65" y="82"/>
      <point x="109" y="33"/>
      <point x="162" y="-1" type="curve"/>
      <point x="169" y="0"/>
      <point x="175" y="3"/>
    </contour>
    <contour>
      <point x="382" y="12" type="curve"/>
      <point x="339" y="39"/>
      <point x="309" y="71"/>
      <point x="285" y="102" type="curve"/>
      <point x="268" y="97" type="line"/>
      <point x="292" y="63"/>
      <point x="325" y="28"/>
      <point x="363" y="4" type="curve"/>
      <point x="369" y="4"/>
      <point x="378" y="8"/>
    </contour>
    <contour>
      <point x="447" y="421" type="line"/>
      <point x="447" y="439" type="line"/>
      <point x="-29" y="439" type="line"/>
      <point x="-29" y="421" type="line"/>
    </contour>
    <contour>
      <point x="340" y="431" type="curve"/>
      <point x="312" y="431" type="line"/>
      <point x="309" y="373"/>
      <point x="295" y="339"/>
      <point x="266" y="295" type="curve"/>
      <point x="281" y="289" type="line"/>
      <point x="317" y="334"/>
      <point x="332" y="371"/>
    </contour>
    <contour>
      <point x="326" y="439" type="move" name="top"/>
    </contour>
    <contour>
      <point x="219" y="0" type="move" name="bottom"/>
    </contour>
  </outline>
</glyph>
<glyph name="grPHxA" format="1">
  <advance width="415"/>
  <unicode hex="0A5E"/>
  <outline>
    <contour>
      <point x="373" y="89" type="curve" smooth="yes"/>
      <point x="373" y="143"/>
      <point x="336" y="186"/>
      <point x="262" y="186" type="curve" smooth="yes"/>
      <point x="201" y="186"/>
      <point x="146" y="155"/>
      <point x="88" y="109" type="curve"/>
      <point x="97" y="96" type="line"/>
      <point x="157" y="139"/>
      <point x="207" y="168"/>
      <point x="262" y="168" type="curve" smooth="yes"/>
      <point x="289" y="168"/>
      <point x="308" y="166"/>
      <point x="334" y="155" type="curve"/>
      <point x="345" y="136"/>
      <point x="352" y="113"/>
      <point x="352" y="89" type="curve" smooth="yes"/>
      <point x="352" y="44"/>
      <point x="320" y="15"/>
      <point x="262" y="15" type="curve" smooth="yes"/>
      <point x="141" y="15"/>
      <point x="57" y="119"/>
      <point x="57" y="206" type="curve" smooth="yes"/>
      <point x="57" y="257"/>
      <point x="88" y="282"/>
      <point x="152" y="282" type="curve" smooth="yes"/>
      <point x="323" y="282" type="line"/>
      <point x="323" y="426" type="line"/>
      <point x="302" y="426" type="line"/>
      <point x="302" y="300" type="line"/>
      <point x="144" y="300" type="line" smooth="yes"/>
      <point x="75" y="300"/>
      <point x="36" y="268"/>
      <point x="36" y="207" type="curve" smooth="yes"/>
      <point x="36" y="109"/>
      <point x="136" y="-4"/>
      <point x="262" y="-4" type="curve" smooth="yes"/>
      <point x="336" y="-4"/>
      <point x="373" y="40"/>
    </contour>
    <contour>
      <point x="62" y="13" type="curve" smooth="yes"/>
      <point x="62" y="25"/>
      <point x="52" y="34"/>
      <point x="41" y="34" type="curve" smooth="yes"/>
      <point x="30" y="34"/>
      <point x="20" y="25"/>
      <point x="20" y="13" type="curve" smooth="yes"/>
      <point x="20" y="1"/>
      <point x="30" y="-8"/>
      <point x="41" y="-8" type="curve" smooth="yes"/>
      <point x="52" y="-8"/>
      <point x="62" y="1"/>
    </contour>
    <contour>
      <point x="444" y="421" type="line"/>
      <point x="444" y="439" type="line"/>
      <point x="-29" y="439" type="line"/>
      <point x="-29" y="421" type="line"/>
    </contour>
    <contour>
      <point x="312" y="439" type="move" name="top"/>
    </contour>
    <contour>
      <point x="218" y="0" type="move" name="bottom"/>
    </contour>
  </outline>
</glyph>
<glyph name="grFour" format="1">
  <advance width="472"/>
  <unicode hex="0A6A"/>
  <outline>
    <contour>
      <point x="291" y="189" type="line"/>
      <point x="372" y="204"/>
      <point x="421" y="250"/>
      <point x="421" y="313" type="curve" smooth="yes"/>
      <point x="421" y="373"/>
      <point x="395" y="408"/>
      <point x="336" y="434" type="curve"/>
      <point x="327" y="421" type="line"/>
      <point x="382" y="389" type="line"/>
      <point x="395" y="370"/>
      <point x="399" y="347"/>
      <point x="399" y="313" type="curve" smooth="yes"/>
      <point x="399" y="243"/>
      <point x="333" y="204"/>
      <point x="229" y="201" type="curve" smooth="yes"/>
      <point x="176" y="199"/>
      <point x="138" y="212"/>
      <point x="91" y="233" type="curve"/>
      <point x="80" y="252"/>
      <point x="73" y="282"/>
      <point x="73" y="313" type="curve" smooth="yes"/>
      <point x="73" y="363"/>
      <point x="94" y="394"/>
      <point x="140" y="410" type="curve"/>
      <point x="131" y="431" type="line"/>
      <point x="78" y="412"/>
      <point x="51" y="373"/>
      <point x="51" y="313" type="curve" smooth="yes"/>
      <point x="51" y="249"/>
      <point x="83" y="202"/>
      <point x="185" y="186" type="curve"/>
    </contour>
    <contour>
      <point x="395" y="94" type="curve" smooth="yes"/>
      <point x="395" y="144"/>
      <point x="369" y="180"/>
      <point x="313" y="193" type="curve"/>
      <point x="313" y="199" type="line"/>
      <point x="160" y="199" type="line"/>
      <point x="160" y="191" type="line"/>
      <point x="103" y="179"/>
      <point x="77" y="144"/>
      <point x="77" y="94" type="curve" smooth="yes"/>
      <point x="77" y="28"/>
      <point x="117" y="-10"/>
      <point x="229" y="-10" type="curve" smooth="yes"/>
      <point x="334" y="-10"/>
      <point x="395" y="28"/>
    </contour>
    <contour>
      <point x="117" y="32" type="curve"/>
      <point x="108" y="46"/>
      <point x="99" y="67"/>
      <point x="99" y="94" type="curve" smooth="yes"/>
      <point x="99" y="154"/>
      <point x="135" y="185"/>
      <point x="229" y="185" type="curve" smooth="yes"/>
      <point x="277" y="185"/>
      <point x="313" y="178"/>
      <point x="356" y="164" type="curve"/>
      <point x="365" y="149"/>
      <point x="373" y="127"/>
      <point x="373" y="94" type="curve" smooth="yes"/>
      <point x="373" y="38"/>
      <point x="323" y="9"/>
      <point x="229" y="9" type="curve" smooth="yes"/>
      <point x="181" y="9"/>
      <point x="161" y="14"/>
    </contour>
  </outline>
</glyph>
<glyph name="grNukta" format="1">
  <unicode hex="0AC3"/>
  <outline>
    <contour>
      <point x="-181" y="-39" type="curve" smooth="yes"/>
      <point x="-181" y="-28"/>
      <point x="-191" y="-18"/>
      <point x="-202" y="-18" type="curve" smooth="yes"/>
      <point x="-213" y="-18"/>
      <point x="-223" y="-28"/>
      <point x="-223" y="-39" type="curve" smooth="yes"/>
      <point x="-223" y="-51"/>
      <point x="-214" y="-60"/>
      <point x="-202" y="-60" type="curve" smooth="yes"/>
      <point x="-191" y="-60"/>
      <point x="-181" y="-51"/>
    </contour>
    <contour>
      <point x="-202" y="0" type="move" name="_bottom"/>
    </contour>
  </outline>
</glyph>
<glyph name="uni2010" format="1">
  <advance width="328"/>
  <unicode hex="2010"/>
  <note>
    uni2010
  </note>
  <outline>
    <contour>
      <point x="281" y="187" type="line"/>
      <point x="281" y="209" type="line"/>
      <point x="47" y="209" type="line"/>
      <point x="47" y="187" type="line"/>
    </contour>
  </outline>
</glyph>
<glyph name="quoteright" format="1">
  <advance width="173"/>
  <unicode hex="2019"/>
  <note>
    quoteright
  </note>
  <outline>
    <contour>
      <point x="117" y="405" type="curve" smooth="yes"/>
      <point x="117" y="432"/>
      <point x="104" y="447"/>
      <point x="78" y="447" type="curve" smooth="yes"/>
      <point x="69" y="447"/>
      <point x="61" y="445"/>
      <point x="54" y="443" type="curve"/>
      <point x="54" y="426" type="line"/>
      <point x="95" y="426" type="line"/>
      <point x="95" y="376"/>
      <point x="86" y="347"/>
      <point x="68" y="317" type="curve"/>
      <point x="84" y="313" type="line"/>
      <point x="106" y="341"/>
      <point x="117" y="370"/>
    </contour>
  </outline>
</glyph>
<glyph name="grHAc2" format="1">
  <outline>
    <contour>
      <point x="-58" y="-156" type="curve" smooth="yes"/>
      <point x="-58" y="-29" type="line"/>
      <point x="-80" y="-29" type="line"/>
      <point x="-80" y="-156" type="line" smooth="yes"/>
      <point x="-80" y="-197"/>
      <point x="-95" y="-217"/>
      <point x="-122" y="-222" type="curve"/>
      <point x="-165" y="-204"/>
      <point x="-193" y="-170"/>
      <point x="-193" y="-134" type="curve" smooth="yes"/>
      <point x="-193" y="-103"/>
      <point x="-176" y="-87"/>
      <point x="-136" y="-87" type="curve"/>
      <point x="-136" y="-69" type="line"/>
      <point x="-180" y="-69"/>
      <point x="-215" y="-86"/>
      <point x="-215" y="-129" type="curve" smooth="yes"/>
      <point x="-215" y="-175"/>
      <point x="-156" y="-233"/>
      <point x="-116" y="-233" type="curve" smooth="yes"/>
      <point x="-85" y="-233"/>
      <point x="-58" y="-207"/>
    </contour>
    <contour>
      <point x="-69" y="0" type="move" name="_bottom"/>
    </contour>
  </outline>
</glyph>
<glyph name="grHeadline_Visarga" format="1">
  <advance width="187"/>
  <outline>
    <contour>
      <point x="162" y="302" type="curve" smooth="yes"/>
      <point x="162" y="344"/>
      <point x="136" y="383"/>
      <point x="90" y="383" type="curve" smooth="yes"/>
      <point x="51" y="383"/>
      <point x="25" y="355"/>
      <point x="25" y="304" type="curve" smooth="yes"/>
      <point x="25" y="262"/>
      <point x="52" y="223"/>
      <point x="98" y="223" type="curve" smooth="yes"/>
      <point x="140" y="223"/>
      <point x="162" y="252"/>
    </contour>
    <contour>
      <point x="162" y="102" type="curve" smooth="yes"/>
      <point x="162" y="144"/>
      <point x="136" y="183"/>
      <point x="90" y="183" type="curve" smooth="yes"/>
      <point x="51" y="183"/>
      <point x="25" y="155"/>
      <point x="25" y="104" type="curve" smooth="yes"/>
      <point x="25" y="62"/>
      <point x="52" y="22"/>
      <point x="98" y="22" type="curve" smooth="yes"/>
      <point x="140" y="22"/>
      <point x="162" y="52"/>
    </contour>
    <contour>
      <point x="59" y="48" type="curve"/>
      <point x="51" y="59"/>
      <point x="45" y="82"/>
      <point x="45" y="104" type="curve" smooth="yes"/>
      <point x="45" y="144"/>
      <point x="61" y="165"/>
      <point x="92" y="165" type="curve" smooth="yes"/>
      <point x="107" y="165"/>
      <point x="119" y="162"/>
      <point x="128" y="157" type="curve"/>
      <point x="136" y="146"/>
      <point x="142" y="123"/>
      <point x="142" y="102" type="curve" smooth="yes"/>
      <point x="142" y="61"/>
      <point x="126" y="41"/>
      <point x="95" y="41" type="curve" smooth="yes"/>
      <point x="81" y="41"/>
      <point x="68" y="43"/>
    </contour>
    <contour>
      <point x="59" y="248" type="curve"/>
      <point x="51" y="260"/>
      <point x="45" y="282"/>
      <point x="45" y="304" type="curve" smooth="yes"/>
      <point x="45" y="344"/>
      <point x="61" y="365"/>
      <point x="92" y="365" type="curve" smooth="yes"/>
      <point x="107" y="365"/>
      <point x="119" y="363"/>
      <point x="128" y="357" type="curve"/>
      <point x="136" y="346"/>
      <point x="142" y="323"/>
      <point x="142" y="302" type="curve" smooth="yes"/>
      <point x="142" y="261"/>
      <point x="126" y="241"/>
      <point x="95" y="241" type="curve" smooth="yes"/>
      <point x="81" y="241"/>
      <point x="68" y="243"/>
    </contour>
    <contour>
      <point x="216" y="421" type="line"/>
      <point x="216" y="439" type="line"/>
      <point x="-29" y="439" type="line"/>
      <point x="-29" y="421" type="line"/>
    </contour>
  </outline>
</glyph>
<glyph name="grmAU_Bindi" format="1">
  <outline>
    <component base="grmAU" xOffset="-44"/>
    <component base="grBindi" xOffset="85"/>
    <contour>
      <point x="-69" y="439" type="move" name="_top"/>
    </contour>
  </outline>
</glyph>
